IKResults
version=1
nRows=11
nColumns=40
inDegrees=yes

Units are S.I. units (second, meters, Newtons, ...)
Angles are in degrees.

endheader
time	pelvis_tilt	pelvis_list	pelvis_rotation	pelvis_tx	pelvis_ty	pelvis_tz	hip_flexion_r	hip_adduction_r	hip_rotation_r	knee_angle_r	knee_angle_r_beta	ankle_angle_r	subtalar_angle_r	mtp_angle_r	hip_flexion_l	hip_adduction_l	hip_rotation_l	knee_angle_l	knee_angle_l_beta	ankle_angle_l	subtalar_angle_l	mtp_angle_l	lumbar_extension	lumbar_bending	lumbar_rotation	arm_flex_r	arm_add_r	arm_rot_r	elbow_flex_r	pro_sup_r	wrist_flex_r	wrist_dev_r	arm_flex_l	arm_add_l	arm_rot_l	elbow_flex_l	pro_sup_l	wrist_flex_l	wrist_dev_l
      0.70000000	     18.39310258	     -1.06451054	      0.06178162	     -0.83349193	      0.95638975	     -1.47719436	     -4.20049002	     -0.82541119	     -3.31872001	    -43.87235277	     -0.76571701	      9.49990504	    -16.12285991	     13.45313362	    -20.48905092	     -1.05051980	     15.65664414	    -11.83006073	     -0.20647351	      8.75845004	     -6.18902022	     -6.63467607	    -24.09473033	     -0.37895291	     -2.22405290	     -3.09713065	    -10.17488562	      4.65225107	     27.41246191	     89.95437384	      0.00000000	      0.00000000	      6.95269013	     13.02063234	     -0.99486119	     24.81681543	     89.95437384	      0.00000000	      0.00000000
      0.71000000	     18.53515605	     -1.65990522	      0.25156306	     -0.82798340	      0.95663694	     -1.47708233	     -3.80690171	     -0.22146897	     -3.62234762	    -42.20941307	     -0.73669323	      9.08068466	    -16.21663016	     13.63111054	    -20.98180115	     -0.44246393	     15.05047316	    -11.90791084	     -0.20783225	      9.37264461	     -5.39766531	     -6.52712041	    -24.35636348	      0.28127220	     -2.30075991	     -3.05626270	    -10.13239955	      4.54581194	     27.34731590	     89.95437384	      0.00000000	      0.00000000	      7.33165146	     13.13354610	     -1.06008139	     25.48592960	     89.95437384	      0.00000000	      0.00000000
      0.72000000	     18.24056098	     -1.72208693	     -0.04640607	     -0.82262399	      0.95597551	     -1.47686358	     -2.56531094	     -0.50292300	     -4.03275388	    -41.21474909	     -0.71933307	      9.01834629	    -15.88329072	     13.45653342	    -20.96655120	     -0.52310473	     15.10351010	    -12.06704858	     -0.21060973	      9.54891515	     -5.18918516	     -6.42542726	    -24.14885581	      0.27750435	     -2.17837287	     -3.08039889	    -10.13563211	      4.53731278	     27.40049663	     89.95437384	      0.00000000	      0.00000000	      7.71598659	     13.19351438	     -1.06601315	     26.00570512	     89.95437384	      0.00000000	      0.00000000
      0.73000000	     18.46398610	     -2.32837189	      0.08315027	     -0.81697236	      0.95624929	     -1.47655004	     -2.40811829	      0.12731249	     -4.24900540	    -39.31053932	     -0.68609834	      8.38392805	    -15.64019337	     13.57305872	    -21.67654754	      0.08218867	     14.60054556	    -11.97595747	     -0.20901989	     10.21756521	     -4.35701710	     -6.30561984	    -24.45715079	      0.93120287	     -2.23161630	     -3.02862161	    -10.02718658	      4.21736222	     27.30494023	     89.95437384	      0.00000000	      0.00000000	      8.03430586	     13.35290776	     -1.34832460	     26.64330105	     89.95437384	      0.00000000	      0.00000000
      0.74000000	     18.10799767	     -2.30705570	     -0.16852457	     -0.81213228	      0.95536198	     -1.47651590	     -1.13280976	     -0.18388810	     -4.64480501	    -38.26925453	     -0.66792449	      8.18530953	    -15.11809729	     13.34901936	    -21.51013373	     -0.07257306	     14.55925650	    -12.22402310	     -0.21334945	     10.34580667	     -4.16510048	     -6.19514896	    -24.25984102	      0.87296645	     -2.12200187	     -3.03673754	    -10.06586024	      4.21715568	     27.39115177	     89.95437384	      0.00000000	      0.00000000	      8.47278189	     13.36732934	     -1.37561621	     27.22559391	     89.95437384	      0.00000000	      0.00000000
      0.75000000	     18.25087258	     -2.78797025	      0.07664901	     -0.80654027	      0.95537663	     -1.47637397	     -0.96230353	      0.25761306	     -5.14080709	    -36.31779211	     -0.63386505	      7.61434719	    -14.34759763	     13.18874263	    -22.07353007	      0.44857456	     13.95061263	    -12.21154597	     -0.21313168	     11.10556562	     -3.43095665	     -6.10867601	    -24.48430118	      1.44573415	     -2.30403707	     -2.93523590	     -9.91434313	      3.85899494	     27.16285513	     89.95437384	      0.00000000	      0.00000000	      8.80725488	     13.51709559	     -1.71187068	     27.79708152	     89.95437384	      0.00000000	      0.00000000
      0.76000000	     18.15837106	     -2.96883218	      0.04225024	     -0.80114060	      0.95487386	     -1.47619929	     -0.34097904	      0.27928321	     -5.57873769	    -34.75996044	     -0.60667576	      7.27084441	    -13.47922311	     12.87037174	    -22.33574565	      0.57100014	     13.60275491	    -12.26936345	     -0.21414079	     11.52966621	     -2.95893949	     -6.03314566	    -24.48226930	      1.64039615	     -2.31016471	     -2.92171959	     -9.85369041	      3.64571304	     27.09303991	     89.95437384	      0.00000000	      0.00000000	      9.13354320	     13.59620787	     -1.93255688	     28.39936994	     89.95437384	      0.00000000	      0.00000000
      0.77000000	     17.79946639	     -2.91760933	     -0.21892448	     -0.79595603	      0.95378641	     -1.47596879	      0.79370363	     -0.03000577	     -6.10529732	    -33.60531223	     -0.58652334	      7.11734593	    -12.96272808	     12.64162748	    -22.22535716	      0.40078260	     13.64673426	    -12.44422494	     -0.21719270	     11.69448132	     -2.78419599	     -5.94720542	    -24.22870258	      1.54163152	     -2.19115270	     -2.98109141	     -9.86705722	      3.63046793	     27.18145179	     89.95437384	      0.00000000	      0.00000000	      9.46865209	     13.59883203	     -1.98411767	     28.95430960	     89.95437384	      0.00000000	      0.00000000
      0.78000000	     18.14505466	     -3.14653523	      0.35648956	     -0.79003546	      0.95389256	     -1.47650751	      0.54412744	     -0.06101269	     -7.59648307	    -31.52104040	     -0.55014594	      6.29331661	    -11.24295644	      9.66129259	    -23.23903262	      0.57513538	     11.60249469	    -11.93144206	     -0.20824295	     12.40685880	     -0.28149659	     -6.02404023	    -24.64285909	      2.00456266	     -2.69056713	     -3.01490136	     -9.74499232	      3.25181365	     27.16211731	     89.95437384	      0.00000000	      0.00000000	      9.72630410	     13.76349709	     -2.46256664	     29.65179878	     89.95437384	      0.00000000	      0.00000000
      0.79000000	     18.08209884	     -3.37657968	      0.55664710	     -0.78445261	      0.95315897	     -1.47643645	      0.99056332	     -0.01559260	     -8.64289921	    -29.88322563	     -0.52156068	      5.72569507	    -10.07460253	      9.10796285	    -23.38774851	      0.91293373	     11.41108213	    -12.26932521	     -0.21414012	     12.87176710	     -0.27329031	     -6.05141217	    -24.65772918	      2.33543791	     -2.86656943	     -3.05769114	     -9.70553121	      3.12179125	     27.16517251	     89.95437384	      0.00000000	      0.00000000	      9.97858016	     13.80615955	     -2.60162566	     30.27467865	     89.95437384	      0.00000000	      0.00000000
      0.80000000	     18.00529368	     -3.56765913	      0.72194317	     -0.77891442	      0.95234350	     -1.47637238	      1.44744631	     -0.01246459	     -9.69927504	    -28.28747470	     -0.49370957	      5.08558218	     -8.70266947	      8.47464282	    -23.53573736	      1.17748763	     11.18820070	    -12.57066228	     -0.21939945	     13.33727117	     -0.09034834	     -6.07761627	    -24.66137632	      2.61879037	     -2.97649517	     -3.09965321	     -9.67120296	      2.98358206	     27.15744258	     89.95437384	      0.00000000	      0.00000000	     10.26244396	     13.83068553	     -2.83338984	     30.85974783	     89.95437384	      0.00000000	      0.00000000
